<svg viewBox="0 0 72 72" xmlns="http://www.w3.org/2000/svg"><g fill="none" stroke="#000" stroke-miterlimit="10" stroke-width="2"><circle cx="36" cy="44.9746" r="23"/><g stroke-linecap="round" stroke-linejoin="round"><circle cx="36" cy="44.9746" r="23"/><path d="m29 19v-2.9792"/><path d="m43 19v-2.9792"/><path d="m29 16.0208h14"/><path d="m25.9896 13.0104-9.0221-9.0221"/><path d="m31.9896 12.0104-8.0065-8.0065"/><path d="m34 8 3.9207-3.9831"/><path d="m46 13 8.9988-8.9779"/><path d="m16.9675 3.9883h7.0156"/><path d="m37.9207 4.0169h17.0781"/><path d="m28.3219 38.3771c.7447-3.6393 3.9646-6.3771 7.8241-6.3771 2.2052 0 4.202.894 5.6472 2.3393 2.2483 2.2483 2.0406 5.9841-.0687 8.3627l-13.565 15.298h15.9729"/></g></g></svg>