<svg viewBox="0 0 72 72" xmlns="http://www.w3.org/2000/svg"><g fill="none" stroke="#000" stroke-miterlimit="10" stroke-width="2"><circle cx="36" cy="45.0208" r="23"/><g stroke-linecap="round" stroke-linejoin="round"><circle cx="36" cy="45.0208" r="23"/><path d="m29 19v-2.9792"/><path d="m43 19v-2.9792"/><path d="m29 16.0208h14"/><path d="m25.9896 13.0104-9.0221-9.0221"/><path d="m31.9896 12.0104-8.0065-8.0065"/><path d="m34 8 3.9207-3.9831"/><path d="m46 13 8.9988-8.9779"/><path d="m16.9675 3.9883h7.0156"/><path d="m37.9207 4.0169h17.0781"/><path d="m28.8327 52.81c.6838 2.9621 3.6397 5.19 7.1827 5.19 4.0493 0 7.3316-2.9101 7.3316-6.5s-3.2823-6.5-7.3316-6.5c4.0493 0 7.3316-2.9101 7.3316-6.5s-3.2823-6.5-7.3316-6.5c-3.543 0-6.4989 2.2282-7.1827 5.19"/></g></g></svg>